<svg id="visual" viewBox="0 0 960 540" width="960" height="540" xmlns="http://www.w3.org/2000/svg" xmlns:xlink="http://www.w3.org/1999/xlink" version="1.1"><path d="M0 381L22.8 375.3C45.7 369.7 91.3 358.3 137 357.3C182.7 356.3 228.3 365.7 274 367.2C319.7 368.7 365.3 362.3 411.2 358.7C457 355 503 354 548.8 352.8C594.7 351.7 640.3 350.3 686 345.2C731.7 340 777.3 331 823 330.8C868.7 330.7 914.3 339.3 937.2 343.7L960 348L960 541L937.2 541C914.3 541 868.7 541 823 541C777.3 541 731.7 541 686 541C640.3 541 594.7 541 548.8 541C503 541 457 541 411.2 541C365.3 541 319.7 541 274 541C228.3 541 182.7 541 137 541C91.3 541 45.7 541 22.8 541L0 541Z" fill="#86e5ff"></path><path d="M0 415L22.8 409.7C45.7 404.3 91.3 393.7 137 391C182.7 388.3 228.3 393.7 274 392.5C319.7 391.3 365.3 383.7 411.2 388.5C457 393.3 503 410.7 548.8 419.8C594.7 429 640.3 430 686 425.7C731.7 421.3 777.3 411.7 823 405.8C868.7 400 914.3 398 937.2 397L960 396L960 541L937.2 541C914.3 541 868.7 541 823 541C777.3 541 731.7 541 686 541C640.3 541 594.7 541 548.8 541C503 541 457 541 411.2 541C365.3 541 319.7 541 274 541C228.3 541 182.7 541 137 541C91.3 541 45.7 541 22.8 541L0 541Z" fill="#61b1d2"></path><path d="M0 447L22.8 447.5C45.7 448 91.3 449 137 445.8C182.7 442.7 228.3 435.3 274 435C319.7 434.7 365.3 441.3 411.2 438.8C457 436.3 503 424.7 548.8 422C594.7 419.3 640.3 425.7 686 423.7C731.7 421.7 777.3 411.3 823 410.3C868.7 409.3 914.3 417.7 937.2 421.8L960 426L960 541L937.2 541C914.3 541 868.7 541 823 541C777.3 541 731.7 541 686 541C640.3 541 594.7 541 548.8 541C503 541 457 541 411.2 541C365.3 541 319.7 541 274 541C228.3 541 182.7 541 137 541C91.3 541 45.7 541 22.8 541L0 541Z" fill="#417fa4"></path><path d="M0 435L22.8 443.2C45.7 451.3 91.3 467.7 137 473.5C182.7 479.3 228.3 474.7 274 468.8C319.7 463 365.3 456 411.2 453C457 450 503 451 548.8 456C594.7 461 640.3 470 686 474.8C731.7 479.7 777.3 480.3 823 479.2C868.7 478 914.3 475 937.2 473.5L960 472L960 541L937.2 541C914.3 541 868.7 541 823 541C777.3 541 731.7 541 686 541C640.3 541 594.7 541 548.8 541C503 541 457 541 411.2 541C365.3 541 319.7 541 274 541C228.3 541 182.7 541 137 541C91.3 541 45.7 541 22.8 541L0 541Z" fill="#255075"></path><path d="M0 490L22.8 487.2C45.7 484.3 91.3 478.7 137 477.8C182.7 477 228.3 481 274 482.2C319.7 483.3 365.3 481.7 411.2 486.8C457 492 503 504 548.8 506.8C594.7 509.7 640.3 503.3 686 496.2C731.7 489 777.3 481 823 477.3C868.7 473.7 914.3 474.3 937.2 474.7L960 475L960 541L937.2 541C914.3 541 868.7 541 823 541C777.3 541 731.7 541 686 541C640.3 541 594.7 541 548.8 541C503 541 457 541 411.2 541C365.3 541 319.7 541 274 541C228.3 541 182.7 541 137 541C91.3 541 45.7 541 22.8 541L0 541Z" fill="#0a2647"></path></svg>